<svg width="100" height="100" viewBox="0 0 100 100" fill="none" xmlns="http://www.w3.org/2000/svg">
<rect width="100" height="100" rx="24" fill="#6874E8"/>
<g transform="translate(20 27.8) scale(2.6087)">
<path d="M9.39727 11.7381C10.0103 10.7434 10.0103 9.49469 9.39727 8.5H13.603C12.99 9.49469 12.99 10.7434 13.603 11.7381H9.39727ZM16.4287 11.7381C17.093 11.7381 17.6927 11.3435 17.9463 10.7383C18.2009 10.1332 18.0603 9.43703 17.59 8.97458C17.1207 8.51111 16.4143 8.3725 15.8003 8.62344C15.1863 8.87338 14.7858 9.46433 14.7858 10.119C14.7889 11.0125 15.5221 11.7351 16.4287 11.7381ZM6.57156 11.7381C7.23588 11.7381 7.83553 11.3435 8.08914 10.7383C8.34378 10.1332 8.20311 9.43703 7.73284 8.97458C7.26358 8.51111 6.55716 8.3725 5.94315 8.62344C5.32914 8.87338 4.92868 9.46433 4.92868 10.119C4.93176 11.0125 5.66491 11.7351 6.57156 11.7381ZM7.21227 3.2219L15.788 3.2381L16.2316 1.61905L16.6669 0H6.33346L6.76881 1.61905L7.21227 3.2219ZM23 2.42857V14.5714C22.9959 15.9112 21.8952 16.996 20.5357 17H2.46429C1.10481 16.996 0.00410057 15.9112 0 14.5714V2.42857C0.00410714 1.0888 1.10481 0.00404114 2.46429 0H4.63286L5.0682 1.61905L5.61857 3.62667C5.79723 4.35019 6.45643 4.85916 7.21214 4.85714H15.7879C16.5384 4.86018 17.1956 4.35928 17.3814 3.64286L17.9318 1.61905L18.3671 0H20.5357C21.8952 0.00404762 22.9959 1.0888 23 2.42857ZM3.28571 10.1192C3.28571 10.9783 3.63174 11.802 4.24782 12.4091C4.86391 13.0162 5.69969 13.3573 6.57143 13.3573H16.4286C18.2429 13.3573 19.7143 11.9072 19.7143 10.1192C19.7143 8.33115 18.2429 6.88108 16.4286 6.88108H6.57143C4.75711 6.88108 3.28571 8.33115 3.28571 10.1192Z" fill="#FFFFFF"/>
</g>
</svg>
